<svg width="29" height="29" viewBox="0 0 29 29" fill="none" xmlns="http://www.w3.org/2000/svg">
<path d="M18.7292 6.04173C17.6075 6.04173 16.5318 6.4873 15.7387 7.28042C14.9456 8.07355 14.5 9.14925 14.5 10.2709C14.5 11.3925 14.9456 12.4682 15.7387 13.2614C16.5318 14.0545 17.6075 14.5001 18.7292 14.5001C19.8508 14.5001 20.9265 14.0545 21.7196 13.2614C22.5128 12.4682 22.9583 11.3925 22.9583 10.2709C22.9583 9.14925 22.5128 8.07355 21.7196 7.28042C20.9265 6.4873 19.8508 6.04173 18.7292 6.04173ZM12.0833 10.2709C12.0835 9.22944 12.3284 8.2026 12.7983 7.27318C13.2682 6.34377 13.95 5.53779 14.7886 4.92027C15.6272 4.30275 16.5992 3.89097 17.6262 3.71813C18.6533 3.5453 19.7065 3.61625 20.7011 3.92526C21.6956 4.23428 22.6036 4.7727 23.3519 5.49712C24.1001 6.22153 24.6676 7.11166 25.0086 8.0957C25.3496 9.07974 25.4546 10.1302 25.3151 11.1622C25.1755 12.1943 24.7954 13.1791 24.2053 14.0373L27.4376 17.2708L25.729 18.9794L22.4967 15.7471C21.4989 16.4338 20.3323 16.8347 19.1231 16.9065C17.9139 16.9783 16.708 16.7182 15.6359 16.1544C14.5638 15.5906 13.6662 14.7445 13.04 13.7076C12.4139 12.6706 12.0831 11.4822 12.0833 10.2709ZM3.625 4.8334H9.66667V7.25006H3.625V4.8334ZM3.625 13.2917H9.66667V15.7084H3.625V13.2917ZM25.375 21.7501V24.1667H3.625V21.7501H25.375Z" fill="white"/>
</svg>
