<svg width="29" height="26" viewBox="0 0 29 26" fill="none" xmlns="http://www.w3.org/2000/svg">
<path d="M8.96213 0.828643C9.05365 0.908532 9.05366 0.908532 9.14788 1.00918C9.34571 1.20992 9.56315 1.37523 9.79962 1.54358C9.96698 1.66432 10.1212 1.79396 10.2753 1.92632C10.3324 1.97398 10.3894 2.02165 10.4481 2.07075C10.7361 2.31147 11.0241 2.55219 11.3121 2.79291C11.3534 2.82508 11.3948 2.85725 11.4373 2.8904C11.5194 2.96623 11.5194 2.96623 11.5194 3.08177C11.5636 3.09726 11.6078 3.11275 11.6533 3.12871C11.7959 3.19732 11.7959 3.19732 11.865 3.37063C11.9049 3.38732 11.9448 3.404 11.986 3.42119C12.1959 3.50893 12.3255 3.63341 12.487 3.77504C12.5483 3.8239 12.6096 3.87275 12.6728 3.92308C12.8326 4.0639 12.8326 4.0639 12.9061 4.19028C12.9907 4.32707 13.0842 4.34444 13.2473 4.41054C13.4547 4.60862 13.4547 4.60862 13.4547 4.75717C13.3392 4.78141 13.3392 4.78142 13.2214 4.80615C12.1731 5.0335 11.1816 5.34982 10.2753 5.85485C10.2069 5.85485 10.1385 5.85485 10.068 5.85485C10.068 5.89298 10.068 5.93111 10.068 5.9704C9.95179 6.04745 9.83147 6.12018 9.70945 6.19065C9.43471 6.35355 9.19079 6.51345 8.96213 6.72144C8.61655 7.0103 8.61655 7.0103 8.45672 7.13668C8.00196 7.53334 8.00196 7.53334 7.64893 7.99243C7.60331 7.99243 7.5577 7.99243 7.5107 7.99243C7.50499 8.03295 7.49929 8.07346 7.49342 8.1152C7.4412 8.28253 7.35889 8.38418 7.24368 8.52505C6.0419 10.0987 5.79238 12.2359 6.23538 14.0421C6.36825 14.4932 6.56191 14.9176 6.81954 15.3295C6.85642 15.4002 6.89251 15.4712 6.92753 15.5426C7.13193 15.9363 7.36288 16.2809 7.66405 16.6299C7.75109 16.7317 7.83447 16.8357 7.91513 16.9411C8.08292 17.1438 8.26864 17.3199 8.46968 17.4996C8.52193 17.5474 8.52193 17.5474 8.57524 17.5961C8.74997 17.7535 8.92618 17.8976 9.12682 18.032C9.18651 18.0744 9.24621 18.1167 9.30771 18.1604C9.30771 18.1985 9.30771 18.2367 9.30771 18.2759C9.36045 18.2914 9.4132 18.3069 9.46754 18.3229C9.65359 18.3916 9.72039 18.4476 9.86064 18.5648C9.9735 18.6206 10.0867 18.6761 10.2016 18.7289C10.3589 18.8027 10.511 18.8823 10.6641 18.962C12.6431 19.951 15.0851 20.2138 17.3252 19.778C18.7534 19.4602 20.2705 18.9132 21.3077 18.0045C21.403 17.9293 21.403 17.9293 21.5412 17.9293C21.1918 17.5846 20.8206 17.2638 20.4354 16.9472C20.0873 16.6611 19.7483 16.3735 19.4312 16.063C19.2901 15.9271 19.1382 15.8017 18.9839 15.6762C18.2928 15.0985 18.2928 15.0985 18.12 14.9504C17.9545 14.8099 17.9545 14.8099 17.783 14.7049C17.5757 14.5605 17.4101 14.4002 17.235 14.2292C17.0886 14.0882 16.9322 13.9577 16.7722 13.8275C15.3899 12.672 15.3899 12.672 15.2171 12.524C15.0517 12.3835 15.0517 12.3835 14.8802 12.2784C14.6728 12.134 14.5072 11.9738 14.3321 11.8027C14.1857 11.6617 14.0294 11.5312 13.8694 11.401C12.487 10.2456 12.487 10.2456 12.3143 10.0975C12.148 9.95653 12.148 9.95653 11.973 9.84838C11.7512 9.69467 11.5334 9.5274 11.3812 9.3212C11.404 9.26401 11.4268 9.20681 11.4503 9.14789C12.4038 9.13571 13.3572 9.12659 14.3108 9.12094C14.7536 9.11823 15.1964 9.11456 15.6391 9.10866C16.0667 9.103 16.4941 9.0999 16.9217 9.09855C17.0846 9.09759 17.2475 9.09572 17.4103 9.09291C18.7531 9.07065 18.7531 9.07065 19.0876 9.26304C19.2474 9.39231 19.365 9.50348 19.4678 9.66784C19.4678 9.70597 19.4678 9.7441 19.4678 9.78338C19.5088 9.7989 19.5498 9.81442 19.5921 9.83041C19.7449 9.89923 19.8442 9.96838 19.9659 10.0709C20.0065 10.1049 20.047 10.139 20.0888 10.174C20.1305 10.2095 20.1722 10.2451 20.2151 10.2817C20.2559 10.3159 20.2968 10.35 20.3389 10.3853C20.5422 10.5569 20.7381 10.7315 20.9255 10.9154C21.2336 11.2108 21.5642 11.4863 21.896 11.763C21.9627 11.8188 22.0293 11.8745 22.096 11.9303C22.2347 12.0464 22.3735 12.1623 22.5125 12.2782C22.6898 12.4261 22.8669 12.5743 23.0439 12.7226C23.1811 12.8375 23.3185 12.9522 23.4559 13.0669C23.5528 13.1479 23.6496 13.229 23.7463 13.31C23.8056 13.3594 23.8649 13.4088 23.926 13.4597C23.9778 13.5029 24.0296 13.5462 24.083 13.5907C24.2383 13.7171 24.2383 13.7171 24.429 13.836C24.4796 13.8713 24.5302 13.9066 24.5823 13.943C24.5823 13.9811 24.5823 14.0193 24.5823 14.0585C24.6265 14.074 24.6707 14.0895 24.7162 14.1055C24.8588 14.1741 24.8588 14.1741 24.9279 14.3474C24.9678 14.3641 25.0077 14.3808 25.0489 14.398C25.3038 14.5045 25.4986 14.6634 25.6234 14.8782C25.7074 15.014 25.8036 15.0333 25.9646 15.0985C25.9875 15.1556 26.0103 15.2128 26.0338 15.2718C26.0794 15.2908 26.125 15.3099 26.172 15.3295C26.2176 15.3486 26.2632 15.3677 26.3102 15.3873C26.333 15.4445 26.3558 15.5017 26.3793 15.5606C26.4193 15.5773 26.4592 15.594 26.5003 15.6112C26.7553 15.7178 26.95 15.8766 27.0748 16.0914C27.1588 16.2272 27.255 16.2465 27.4161 16.3117C27.4389 16.3689 27.4617 16.4261 27.4852 16.485C27.5308 16.5041 27.5764 16.5231 27.6234 16.5428C27.669 16.5618 27.7147 16.5809 27.7617 16.6005C27.7845 16.6577 27.8073 16.7149 27.8308 16.7739C27.8707 16.7905 27.9106 16.8072 27.9517 16.8244C28.2067 16.931 28.4014 17.0899 28.5263 17.3046C28.582 17.4204 28.582 17.4204 28.7336 17.4671C28.8675 17.5249 28.8675 17.5249 28.9234 17.6204C28.9707 18.1049 28.28 18.8145 27.969 19.2003C27.9278 19.2524 27.9278 19.2524 27.8859 19.3055C26.8562 20.6068 25.5952 21.7492 24.0713 22.6574C23.9795 22.7128 23.8905 22.7715 23.8023 22.8309C23.6838 22.8977 23.6838 22.8977 23.4765 22.8977C23.4765 22.9359 23.4765 22.974 23.4765 23.0133C22.4749 23.647 21.2038 24.0671 20.0207 24.3998C19.8925 24.4369 19.8925 24.4369 19.7618 24.4748C19.1282 24.6489 18.4826 24.7518 17.8262 24.8476C17.7428 24.8597 17.6593 24.8719 17.5734 24.8845C13.7599 25.4153 9.71091 24.6289 6.54307 22.7822C6.03843 22.4797 5.56213 22.1538 5.10676 21.8005C4.95082 21.6794 4.95082 21.6794 4.76118 21.5613C4.71057 21.5257 4.65997 21.4901 4.60783 21.4534C4.60783 21.4153 4.60783 21.3772 4.60783 21.3379C4.56364 21.3224 4.51945 21.3069 4.47392 21.2909C4.33137 21.2223 4.33137 21.2223 4.26225 21.049C4.22278 21.0335 4.18331 21.018 4.14265 21.0021C3.91685 20.9033 3.77777 20.7488 3.61861 20.5868C3.56803 20.536 3.56803 20.536 3.51644 20.4841C3.23825 20.2015 2.9848 19.9091 2.7417 19.6047C2.68725 19.5394 2.63271 19.4741 2.57809 19.4088C2.15551 18.899 1.80957 18.376 1.49761 17.8138C1.4739 17.7715 1.45019 17.7292 1.42576 17.6857C-0.262496 14.6615 -0.465933 11.0995 0.892849 7.95272C1.25484 7.14975 1.69078 6.34056 2.25789 5.62376C2.30938 5.55704 2.36085 5.49032 2.41232 5.42359C2.93836 4.74751 3.48697 4.09816 4.19313 3.54395C4.24873 3.49748 4.30432 3.45101 4.3616 3.40313C4.42005 3.35428 4.4785 3.30542 4.53871 3.25509C4.58967 3.21115 4.64064 3.16721 4.69314 3.12194C4.7491 3.07413 4.80505 3.02632 4.86269 2.97706C4.91571 2.93141 4.96872 2.88576 5.02333 2.83872C5.16076 2.73514 5.16076 2.73514 5.29899 2.73514C5.3218 2.67794 5.3446 2.62075 5.3681 2.56182C5.49535 2.46802 5.62125 2.38275 5.75688 2.29823C5.79715 2.27291 5.83742 2.24758 5.87891 2.22149C6.00743 2.1415 6.13679 2.06259 6.26661 1.98409C6.30641 1.95998 6.34622 1.93587 6.38723 1.91103C6.92829 1.58747 7.49388 1.31029 8.0809 1.0489C8.14434 1.02035 8.20777 0.99179 8.27313 0.962369C8.33265 0.936485 8.39216 0.910602 8.45348 0.883933C8.53316 0.849059 8.53316 0.849059 8.61446 0.813481C8.75478 0.770871 8.75478 0.770871 8.96213 0.828643Z" fill="#FEFEFE"/>
</svg>
