<svg width="27" height="23" viewBox="0 0 27 23" fill="none" xmlns="http://www.w3.org/2000/svg">
<path d="M18.9844 0C16.5645 0 14.4457 1.04062 13.125 2.79961C11.8043 1.04062 9.68555 0 7.26562 0C5.33933 0.00217118 3.49255 0.768352 2.13045 2.13045C0.768352 3.49255 0.00217118 5.33933 0 7.26562C0 15.4687 12.1629 22.1086 12.6809 22.3828C12.8174 22.4563 12.97 22.4947 13.125 22.4947C13.28 22.4947 13.4326 22.4563 13.5691 22.3828C14.0871 22.1086 26.25 15.4687 26.25 7.26562C26.2478 5.33933 25.4816 3.49255 24.1196 2.13045C22.7575 0.768352 20.9107 0.00217118 18.9844 0ZM13.125 20.4844C10.9852 19.2375 1.875 13.5574 1.875 7.26562C1.87686 5.83651 2.4454 4.46647 3.45593 3.45593C4.46647 2.4454 5.83651 1.87686 7.26562 1.875C9.54492 1.875 11.4586 3.08906 12.2578 5.03906C12.3284 5.21101 12.4486 5.35808 12.603 5.46158C12.7574 5.56508 12.9391 5.62034 13.125 5.62034C13.3109 5.62034 13.4926 5.56508 13.647 5.46158C13.8014 5.35808 13.9216 5.21101 13.9922 5.03906C14.7914 3.08555 16.7051 1.875 18.9844 1.875C20.4135 1.87686 21.7835 2.4454 22.7941 3.45593C23.8046 4.46647 24.3731 5.83651 24.375 7.26562C24.375 13.548 15.2625 19.2363 13.125 20.4844Z" fill="#00D2FC"/>
</svg>
