<svg width="33" height="33" viewBox="0 0 33 33" fill="none" xmlns="http://www.w3.org/2000/svg">
<path d="M22.6875 4.875C26.5092 4.875 29.5 7.85386 29.5 11.6875C29.5 14.0328 28.4487 16.226 26.4463 18.6758C24.4357 21.1355 21.5453 23.7616 17.9902 26.9854L17.9893 26.9863L16.5 28.3418L15.0107 26.9863L15.0098 26.9854C11.4547 23.7616 8.56427 21.1355 6.55371 18.6758C4.55133 16.226 3.5 14.0328 3.5 11.6875C3.5 7.85386 6.49082 4.875 10.3125 4.875C12.4783 4.875 14.5691 5.88727 15.9307 7.47363L16.5 8.13672L17.0693 7.47363C18.4309 5.88727 20.5217 4.875 22.6875 4.875Z" stroke="#FEFEFE" stroke-width="1.5"/>
</svg>
