<svg width="32" height="32" viewBox="0 0 32 32" fill="none" xmlns="http://www.w3.org/2000/svg">
<path d="M5.33398 23.9998C5.33398 22.5853 5.89589 21.2288 6.89608 20.2286C7.89628 19.2284 9.25283 18.6665 10.6673 18.6665H21.334C22.7485 18.6665 24.105 19.2284 25.1052 20.2286C26.1054 21.2288 26.6673 22.5853 26.6673 23.9998C26.6673 24.7071 26.3864 25.3854 25.8863 25.8855C25.3862 26.3856 24.7079 26.6665 24.0007 26.6665H8.00065C7.29341 26.6665 6.61513 26.3856 6.11503 25.8855C5.61494 25.3854 5.33398 24.7071 5.33398 23.9998Z" stroke="white" stroke-width="2.75862" stroke-linejoin="round"/>
<path d="M16.0005 13.3333C18.2096 13.3333 20.0005 11.5424 20.0005 9.33325C20.0005 7.12411 18.2096 5.33325 16.0005 5.33325C13.7913 5.33325 12.0005 7.12411 12.0005 9.33325C12.0005 11.5424 13.7913 13.3333 16.0005 13.3333Z" stroke="white" stroke-width="2.75862"/>
</svg>
