<svg width="23" height="25" viewBox="0 0 23 25" fill="none" xmlns="http://www.w3.org/2000/svg">
<path fill-rule="evenodd" clip-rule="evenodd" d="M19.2395 12.0312C18.6711 12.1767 18.0867 12.2502 17.5 12.2499H17.4825V12.6297C17.4825 14.2204 17.7328 15.8112 18.256 17.3389L18.9053 19.2867H2.05275V19.2657L2.70025 17.3179C3.2075 15.7994 3.46921 14.2097 3.4755 12.6087V8.75695C3.4755 7.7717 3.6855 6.8092 4.08275 5.92895C4.48 5.02945 5.04525 4.2332 5.7785 3.58395C6.51175 2.91545 7.371 2.41145 8.2915 2.1192C9.233 1.8042 10.2165 1.6992 11.179 1.8042L11.389 1.8357C11.7073 1.26591 12.1037 0.743428 12.5668 0.283448C12.1663 0.175895 11.7587 0.0969461 11.347 0.0471976C10.1325 -0.0788024 8.897 0.0471976 7.7245 0.444448C6.552 0.820698 5.4845 1.44895 4.585 2.2872C3.6801 3.103 2.95943 4.10228 2.471 5.21845C1.98064 6.33408 1.72395 7.53832 1.71675 8.75695V12.6069C1.71448 14.0162 1.48824 15.4162 1.0465 16.7544L0 19.8502L0.83825 21.0017H6.972C6.972 21.9222 7.34825 22.8217 7.9975 23.4727C8.645 24.1202 9.54625 24.4982 10.4685 24.4982C11.3908 24.4982 12.2885 24.1219 12.9377 23.4727C13.587 22.8234 13.965 21.9222 13.965 21.0017H20.0988L20.9353 19.8502L19.9098 16.7527C19.466 15.4083 19.2397 14.0017 19.2395 12.5859V12.0312ZM10.4685 22.785C10.6989 22.7831 10.9266 22.7357 11.1386 22.6456C11.3506 22.5555 11.5428 22.4245 11.704 22.2599C11.8691 22.1007 11.9991 21.9087 12.0856 21.6962C12.1721 21.4837 12.2132 21.2555 12.2063 21.0262H8.70975C8.70975 21.4864 8.897 21.9274 9.233 22.2617C9.39439 22.4259 9.5866 22.5566 9.79861 22.6464C10.0106 22.7362 10.2383 22.7833 10.4685 22.785Z" fill="#00D2FC"/>
<path d="M17.5 10.5C18.1894 10.5 18.8721 10.3642 19.5091 10.1004C20.146 9.83653 20.7248 9.44982 21.2123 8.96231C21.6998 8.4748 22.0865 7.89605 22.3504 7.25909C22.6142 6.62213 22.75 5.93944 22.75 5.25C22.75 4.56056 22.6142 3.87787 22.3504 3.24091C22.0865 2.60395 21.6998 2.0252 21.2123 1.53769C20.7248 1.05018 20.146 0.66347 19.5091 0.399632C18.8721 0.135795 18.1894 -1.02735e-08 17.5 0C16.1076 2.07482e-08 14.7723 0.553123 13.7877 1.53769C12.8031 2.52226 12.25 3.85761 12.25 5.25C12.25 6.64239 12.8031 7.97775 13.7877 8.96231C14.7723 9.94688 16.1076 10.5 17.5 10.5Z" fill="#00D2FC"/>
</svg>
