<svg width="26" height="26" viewBox="0 0 26 26" fill="none" xmlns="http://www.w3.org/2000/svg">
<rect x="0.801025" y="0.605469" width="24.5337" height="24.5337" rx="5" fill="#01151C"/>
<path d="M22.268 22.0724L18.179 17.9835M20.2235 11.85C20.2235 14.0189 19.3619 16.099 17.8282 17.6327C16.2946 19.1663 14.2145 20.0279 12.0456 20.0279C9.87667 20.0279 7.79659 19.1663 6.26293 17.6327C4.72927 16.099 3.86768 14.0189 3.86768 11.85C3.86768 9.68111 4.72927 7.60103 6.26293 6.06737C7.79659 4.53372 9.87667 3.67212 12.0456 3.67212C14.2145 3.67212 16.2946 4.53372 17.8282 6.06737C19.3619 7.60103 20.2235 9.68111 20.2235 11.85Z" stroke="#00D2FC" stroke-miterlimit="10" stroke-linecap="round" stroke-linejoin="round"/>
</svg>
