<svg width="32" height="32" viewBox="0 0 32 32" fill="none" xmlns="http://www.w3.org/2000/svg">
<path d="M19.3333 8.66667L12.6667 13.3333M19.3333 23.3333L12.6667 18.6667M12.6667 16C12.6667 16.8841 12.3155 17.7319 11.6904 18.357C11.0652 18.9821 10.2174 19.3333 9.33333 19.3333C8.44928 19.3333 7.60143 18.9821 6.97631 18.357C6.35119 17.7319 6 16.8841 6 16C6 15.1159 6.35119 14.2681 6.97631 13.643C7.60143 13.0179 8.44928 12.6667 9.33333 12.6667C10.2174 12.6667 11.0652 13.0179 11.6904 13.643C12.3155 14.2681 12.6667 15.1159 12.6667 16ZM26 24.6667C26 25.5507 25.6488 26.3986 25.0237 27.0237C24.3986 27.6488 23.5507 28 22.6667 28C21.7826 28 20.9348 27.6488 20.3096 27.0237C19.6845 26.3986 19.3333 25.5507 19.3333 24.6667C19.3333 23.7826 19.6845 22.9348 20.3096 22.3096C20.9348 21.6845 21.7826 21.3333 22.6667 21.3333C23.5507 21.3333 24.3986 21.6845 25.0237 22.3096C25.6488 22.9348 26 23.7826 26 24.6667ZM26 7.33333C26 8.21739 25.6488 9.06523 25.0237 9.69036C24.3986 10.3155 23.5507 10.6667 22.6667 10.6667C21.7826 10.6667 20.9348 10.3155 20.3096 9.69036C19.6845 9.06523 19.3333 8.21739 19.3333 7.33333C19.3333 6.44928 19.6845 5.60143 20.3096 4.97631C20.9348 4.35119 21.7826 4 22.6667 4C23.5507 4 24.3986 4.35119 25.0237 4.97631C25.6488 5.60143 26 6.44928 26 7.33333Z" stroke="white" stroke-width="1.4375" stroke-linecap="round" stroke-linejoin="round"/>
</svg>
