<svg width="13" height="21" viewBox="0 0 13 21" fill="none" xmlns="http://www.w3.org/2000/svg">
<path d="M6.5 11.9191C5.88586 11.9191 5.36935 11.6899 4.95049 11.2314C4.53162 10.7729 4.32219 10.2075 4.32219 9.53529V2.38382C4.32219 1.71158 4.53162 1.14622 4.95049 0.687733C5.36935 0.229244 5.88586 0 6.5 0C7.11414 0 7.63065 0.229244 8.04951 0.687733C8.46838 1.14622 8.67781 1.71158 8.67781 2.38382V9.53529C8.67781 10.2075 8.46838 10.7729 8.04951 11.2314C7.63065 11.6899 7.11414 11.9191 6.5 11.9191ZM5.95555 20.2625V16.6665C4.38389 16.5155 3.0351 15.8322 1.90917 14.6164C0.783244 13.4015 0.148774 11.9163 0.00576478 10.161C-0.0160133 9.991 0.0239134 9.844 0.125545 9.72004C0.227176 9.59687 0.355667 9.53529 0.511017 9.53529C0.666368 9.53529 0.795948 9.59608 0.899757 9.71765C1.00357 9.83923 1.07071 9.98464 1.1012 10.1539C1.24421 11.6819 1.83331 12.9541 2.8685 13.9704C3.90368 14.9867 5.11419 15.4948 6.5 15.4948C7.90469 15.4948 9.11991 14.9819 10.1457 13.9561C11.1714 12.9295 11.7558 11.6621 11.8988 10.1539C11.9293 9.98464 11.9964 9.83923 12.1002 9.71765C12.2041 9.59608 12.3336 9.53529 12.489 9.53529C12.6443 9.53529 12.7728 9.59727 12.8745 9.72123C12.9761 9.84519 13.016 9.99179 12.9942 10.161C12.8512 11.8774 12.2215 13.349 11.105 14.5759C9.98849 15.8028 8.63498 16.4996 7.04445 16.6665V20.2625C7.04445 20.4325 6.99255 20.5744 6.88874 20.688C6.78493 20.8016 6.65535 20.8584 6.5 20.8584C6.34465 20.8584 6.21507 20.8016 6.11126 20.688C6.00745 20.5744 5.95555 20.4325 5.95555 20.2625Z" fill="#BABABA"/>
</svg>
